<?xml version="1.0" encoding="UTF-8" standalone="no"?>
<!-- Generator: Adobe Illustrator 19.0.0, SVG Export Plug-In . SVG Version: 6.00 Build 0)  -->

<svg
   xmlns:dc="http://purl.org/dc/elements/1.1/"
   xmlns:cc="http://creativecommons.org/ns#"
   xmlns:rdf="http://www.w3.org/1999/02/22-rdf-syntax-ns#"
   xmlns:svg="http://www.w3.org/2000/svg"
   xmlns="http://www.w3.org/2000/svg"
   xmlns:sodipodi="http://sodipodi.sourceforge.net/DTD/sodipodi-0.dtd"
   xmlns:inkscape="http://www.inkscape.org/namespaces/inkscape"
   version="1.1"
   id="Capa_1"
   x="0px"
   y="0px"
   viewBox="0 0 30 30"
   xml:space="preserve"
   sodipodi:docname="ico_01_pattern.svg"
   width="30"
   height="30"
   inkscape:version="0.92.4 (5da689c313, 2019-01-14)"><metadata
   id="metadata43"><rdf:RDF><cc:Work
       rdf:about=""><dc:format>image/svg+xml</dc:format><dc:type
         rdf:resource="http://purl.org/dc/dcmitype/StillImage" /><dc:title></dc:title></cc:Work></rdf:RDF></metadata><defs
   id="defs41" /><sodipodi:namedview
   pagecolor="#ffffff"
   bordercolor="#666666"
   borderopacity="1"
   objecttolerance="10"
   gridtolerance="10"
   guidetolerance="10"
   inkscape:pageopacity="0"
   inkscape:pageshadow="2"
   inkscape:window-width="1920"
   inkscape:window-height="1017"
   id="namedview39"
   showgrid="false"
   inkscape:zoom="5.3679063"
   inkscape:cx="84.717505"
   inkscape:cy="37.569795"
   inkscape:window-x="-8"
   inkscape:window-y="-8"
   inkscape:window-maximized="1"
   inkscape:current-layer="Capa_1" />
<g
   id="g6"
   transform="matrix(0.06857665,0,0,0.0682361,2.4387115,3.3919056)"
   style="stroke-width:14.61856556">
	<g
   id="g4"
   style="stroke-width:14.61856556">
		<path
   d="m 286.66,0 h -30.28 v 102.48 c 0,7.2 -7.28,10.76 -12.92,1.72 l -20,-32 -20,32 c -5.68,9 -12.92,5.48 -12.92,-1.72 V 0 H 89.02 C 64.479,0.066 44.62,19.979 44.62,44.52 v 262.8 c 0.066,24.494 19.906,44.334 44.4,44.4 H 286.7 c 5.406,-0.009 10.587,-2.167 14.4,-6 3.833,-3.813 5.991,-8.994 6,-14.4 V 20.44 C 307.078,9.16 297.94,0.022 286.66,0 Z m 3.8,298.92 -192.88,0.24 c -4.204,0.29 -7.549,3.636 -7.839,7.839 -0.321,4.65 3.189,8.68 7.839,9.001 h 192.88 l -0.04,15.52 c 0.002,0.925 -0.357,1.815 -1,2.48 -0.665,0.643 -1.555,1.002 -2.48,1 H 89.02 c -15.188,0 -27.5,-12.312 -27.5,-27.5 0,-15.188 12.312,-27.5 27.5,-27.5 h 197.92 c 1.935,0.022 3.498,1.585 3.52,3.52 z"
   id="path2"
   inkscape:connector-curvature="0"
   style="stroke-width:14.61856556" />
	</g>
</g>
<g
   id="g8"
   transform="translate(0,-321.72)">
</g>
<g
   id="g10"
   transform="translate(0,-321.72)">
</g>
<g
   id="g12"
   transform="translate(0,-321.72)">
</g>
<g
   id="g14"
   transform="translate(0,-321.72)">
</g>
<g
   id="g16"
   transform="translate(0,-321.72)">
</g>
<g
   id="g18"
   transform="translate(0,-321.72)">
</g>
<g
   id="g20"
   transform="translate(0,-321.72)">
</g>
<g
   id="g22"
   transform="translate(0,-321.72)">
</g>
<g
   id="g24"
   transform="translate(0,-321.72)">
</g>
<g
   id="g26"
   transform="translate(0,-321.72)">
</g>
<g
   id="g28"
   transform="translate(0,-321.72)">
</g>
<g
   id="g30"
   transform="translate(0,-321.72)">
</g>
<g
   id="g32"
   transform="translate(0,-321.72)">
</g>
<g
   id="g34"
   transform="translate(0,-321.72)">
</g>
<g
   id="g36"
   transform="translate(0,-321.72)">
</g>
</svg>