<?xml version="1.0" encoding="UTF-8" standalone="no"?>
<!-- Generator: Adobe Illustrator 23.0.6, SVG Export Plug-In . SVG Version: 6.00 Build 0)  -->

<svg
   xmlns:dc="http://purl.org/dc/elements/1.1/"
   xmlns:cc="http://creativecommons.org/ns#"
   xmlns:rdf="http://www.w3.org/1999/02/22-rdf-syntax-ns#"
   xmlns:svg="http://www.w3.org/2000/svg"
   xmlns="http://www.w3.org/2000/svg"
   xmlns:sodipodi="http://sodipodi.sourceforge.net/DTD/sodipodi-0.dtd"
   xmlns:inkscape="http://www.inkscape.org/namespaces/inkscape"
   version="1.1"
   id="Слой_2"
   x="0px"
   y="0px"
   viewBox="0 0 25.395225 16.956039"
   xml:space="preserve"
   sodipodi:docname="ico_04_pattern.svg"
   width="25.395226"
   height="16.956039"
   inkscape:version="0.92.4 (5da689c313, 2019-01-14)"><metadata
   id="metadata9"><rdf:RDF><cc:Work
       rdf:about=""><dc:format>image/svg+xml</dc:format><dc:type
         rdf:resource="http://purl.org/dc/dcmitype/StillImage" /><dc:title /></cc:Work></rdf:RDF></metadata><defs
   id="defs7" /><sodipodi:namedview
   pagecolor="#ffffff"
   bordercolor="#666666"
   borderopacity="1"
   objecttolerance="10"
   gridtolerance="10"
   guidetolerance="10"
   inkscape:pageopacity="0"
   inkscape:pageshadow="2"
   inkscape:window-width="1920"
   inkscape:window-height="1017"
   id="namedview5"
   showgrid="false"
   inkscape:zoom="5.3973796"
   inkscape:cx="-27.238894"
   inkscape:cy="43.311504"
   inkscape:window-x="-8"
   inkscape:window-y="-8"
   inkscape:window-maximized="1"
   inkscape:current-layer="Слой_2" />
<path
   d="m 17.233263,1.4240091 c 0,0 -0.678912,1.0393576 -0.127383,1.103154 0.551512,0.063625 1.230445,0 1.421055,0.6681685 0.191184,0.6681755 0.07441,1.3150905 0.403243,1.3044275 0.328801,-0.00945 1.972748,-0.3074366 2.407472,-0.053826 0.43488,0.2543847 1.050001,1.0179127 1.050001,1.0179127 0,0 1.410543,0.106098 1.601578,0.2543636 0.191163,0.1484491 1.749959,0.6999725 1.336523,1.103164 -0.4135,0.4031734 -0.530095,0.6361606 -0.55157,0.9440331 -0.02147,0.3073495 0.08466,0.7421065 0.106068,1.0076505 0.02187,0.265003 0.05368,0.445527 -0.0093,0.615242 -0.06358,0.169715 -0.105997,0.456189 -0.180427,0.519872 -0.07429,0.06358 -0.350158,-0.0088 -0.551526,-0.0088 -0.201374,0 -1.134717,0.254397 -1.516489,1.113697 -0.381754,0.858966 -1.972617,0.986399 -1.972617,0.986399 l -2.110385,0.859005 c 0,0 -0.774328,0.509114 -0.805898,0.509114 -0.03012,0 -0.244146,0.08459 -0.0094,0.562252 0.233503,0.477101 0.721296,1.070919 0.986379,1.145367 0.264981,0.0743 0.530155,-0.148227 0.805845,-0.233529 0.275858,-0.08462 0.339537,-0.18035 0.49848,-0.106008 0.159122,0.07444 0.413513,0.08468 0.275882,0.350116 -0.137662,0.265223 -0.159091,0.424192 -0.275882,0.50936 -0.116612,0.08464 -0.07417,0.254362 -0.445399,0.190948 -0.371061,-0.06351 -0.615209,-0.233309 -0.763625,-0.222649 -0.148298,0.0093 -0.222693,0.03837 -0.392433,0.236793 -0.169747,0.197935 -0.466455,0.410226 -0.593862,0.42071 -0.127482,0.0094 -0.36042,-0.06358 -0.562219,0.180408 -0.201385,0.244079 -0.106126,0.392585 -0.445504,0.477329 -0.339441,0.08462 -0.731936,0.116564 -0.869639,0.0089 -0.137674,-0.106101 -0.297127,-0.07433 -0.275733,-0.275794 0.02177,-0.201407 0.07431,-0.09536 0.24414,-0.392458 0.169697,-0.297175 0.04225,-0.646897 -0.04225,-0.774317 -0.08465,-0.127394 0,-0.148378 -0.318115,-0.180374 -0.31802,-0.03032 -0.519873,-0.127431 -0.689185,-0.148387 -0.169695,-0.02187 -0.328747,-0.0096 -0.360436,-0.08463 -0.03022,-0.07441 1.007697,-0.933305 1.410537,-1.039362 0.403114,-0.106014 0.180338,-0.456202 -0.297155,-0.519877 -0.477175,-0.06349 -0.487818,0.350148 -1.35751,0.06358 -0.869603,-0.286434 -0.890974,-0.392423 -1.177414,-0.678859 -0.286412,-0.286481 -0.668315,-0.699945 -1.060728,0.02177 -0.39245,0.721359 -0.911939,1.240791 -1.156075,1.527249 -0.244091,0.286456 -0.286427,0.874969 -0.286427,0.874969 0,0 0.03012,-0.381801 -0.291814,-0.403248 0,0 -1.0922775,0.519946 -1.3894925,0.376443 -0.2971649,-0.142926 -0.5039094,-0.392365 0.1483536,-1.044598 0.6522384,-0.652194 0.4878477,-0.790336 0.4932365,-1.044702 0.00845,-0.254417 0.1113837,-0.694658 0.4561225,-0.540863 0.3447629,0.153775 0.3818069,0.39789 0.4878299,0.360525 0.106024,-0.03811 0.27041,-0.127431 0.35012,-0.302102 0.07977,-0.174647 0.169741,-0.344878 0.06909,-0.514604 -0.100735,-0.169708 -0.265061,-0.148308 -0.39263,-0.286435 -0.127303,-0.137654 -0.05358,-0.805851 -0.121916,-0.896443 -0.06909,-0.08999 -0.169816,0.132948 -0.5515697,-0.280901 C 9.451329,10.290268 10.278658,10.438948 9.8866263,9.887455 9.4943498,9.33604 7.6598246,8.64673 7.6598246,8.64673 c 0,0 -1.6123875,0.307487 -1.83501,0.646946 C 5.6017747,9.633078 4.4247121,9.664845 4.2335721,9.898104 4.042696,10.13149 3.936459,10.39653 3.4277118,9.823614 2.9188195,9.250928 2.7914397,9.739132 1.3170597,9.452727 -0.15687127,9.166294 0.02334745,8.82664 0.00215302,8.731377 -0.01961501,8.636027 0.12961371,8.264923 0.18238649,8.137505 0.23621799,8.01019 0.32006928,7.7449363 0.41595162,7.58611 c 0.0952351,-0.1591287 0,-0.9970339 0.79532018,-1.9411192 0.7952242,-0.9440515 1.4740047,-1.5694853 1.4740047,-1.6123075 0,-0.042298 0.084745,-0.4240432 0.022209,-0.5937235 C 2.6443703,3.2692545 2.4000458,2.9828063 2.2726737,2.7069111 2.1452796,2.4310528 1.933232,1.4978292 3.0892032,1.2857895 4.2452327,1.0737938 5.3163379,1.031449 5.3163379,1.031449 c 0,0 1.6969433,0.4770515 1.728463,0.487634 0.030241,0.00955 0.9440496,0.3288146 1.0181642,0.3075683 C 8.1367491,1.8050983 9.5369538,1.72054 9.6113616,1.72054 c 0.074397,0 0.3817262,0.4349265 0.5514934,0.445509 0.169773,0.00992 0.636345,-0.1802552 0.933448,-0.1697243 0.297035,0.00955 0.551439,0.732075 0.752911,0.5408547 0.201424,-0.1910953 -0.233528,-0.8273103 0,-1.1560959 0,0 0.184032,-0.61521927 0.850156,-0.71057227 0.666167,-0.095234 1.048044,0.3182842 1.292131,0.084676 0.244082,-0.2334479 0.265166,-0.4663658 0.551637,-0.5622699 0.28647,-0.095665 0.657579,-0.1058764 0.986252,-0.148236 0.328685,-0.042587 0.477257,-0.074467 0.72137,0 0.243787,0.074715 0.986413,1.37913717 0.986413,1.37913717 z"
   id="path2"
   style="fill:#000000;fill-opacity:1;stroke-width:0.99999863"
   inkscape:connector-curvature="0" />
</svg>