<svg height="512pt" viewBox="-26 0 512 512" width="512pt" xmlns="http://www.w3.org/2000/svg"><g fill-rule="evenodd"><path d="m238.574219 415.34375c111.628906 0 202.671875-91.042969 202.671875-202.671875s-91.042969-202.671875-202.671875-202.671875c-111.628907 0-202.671875 91.042969-202.671875 202.671875 0 111.625 91.042968 202.671875 202.671875 202.671875zm0 0" fill="#8eecf0"/><path d="m201.167969 273.171875c-51.476563 37.289063-93.667969-14.988281-56.914063-40.746094 26.191406-18.351562 16.0625-78.386719-37.828125-43.597656-21.351562 13.78125-52.824219 6.460937-66.542969-16.3125-2.609374 12.980469-3.980468 26.40625-3.980468 40.15625 0 .605469.003906 1.210937.007812 1.816406 4.972656 2.066407 9.121094 6.433594 10.683594 13.433594l17.273438 77.386719c.871093-1.46875 1.996093-2.832032 3.402343-4.046875 7.324219-6.34375 18.507813-5.539063 24.847657 1.785156l18.234374 21.0625c18.449219 21.3125 16.65625 17.367187 43.859376 25.339844 14.429687 4.230469 26.449218 11.070312 36.308593 19.625 2.027344-1.753907 5.21875-9.269531 5.734375-11.820313 6.414063-31.472656 18.703125-24.582031 35.257813-40.742187 24.460937-23.875 1.554687-66.449219-30.34375-43.339844zm0 0" fill="#73ca5b"/><path d="m272.511719 196.171875c5.976562 13.550781 25.304687 20.144531 67.085937 3.570313 37-14.679688 48.195313 37.257812 69.757813 46.46875l4.082031-18.289063c3.292969-14.742187 18.050781-17.796875 27.785156-12.328125.015625-.972656.023438-1.945312.023438-2.921875 0-73.199219-38.804688-137.332031-96.964844-172.953125-23.78125 17.527344-30.644531 30.582031-9.226562 59.472656 36.097656 48.695313-87.722657 39.902344-62.542969 96.980469zm0 0" fill="#73ca5b"/><path d="m392.761719 301.261719c-7.324219-6.34375-18.507813-5.539063-24.847657 1.785156l-18.234374 21.0625c-18.449219 21.3125-16.65625 17.367187-43.859376 25.339844-53.429687 15.65625-73.796874 67.101562-73.796874 108.890625v43.660156h96.710937l-5-43.660156 55.753906-29.945313c32.828125-18.242187 37.476563-24.082031 45.726563-66.996093l24.382812-126.523438c4.628906-24.035156-30.828125-30.847656-36.160156-6.953125l-17.273438 77.386719c-.867187-1.46875-1.996093-2.835938-3.402343-4.046875zm0 0" fill="#f4cdac"/><path d="m67.265625 301.261719c7.328125-6.34375 18.511719-5.539063 24.851563 1.785156l18.234374 21.0625c18.449219 21.3125 16.65625 17.367187 43.859376 25.339844 53.429687 15.65625 73.792968 67.101562 73.792968 108.890625v43.660156h-96.707031l5-43.660156-55.757813-29.945313c-32.824218-18.242187-37.472656-24.085937-45.722656-66.996093l-24.382812-126.527344c-4.632813-24.035156 30.824218-30.84375 36.160156-6.949219l17.273438 77.386719c.867187-1.46875 1.996093-2.835938 3.398437-4.046875zm0 0" fill="#f4cdac"/></g><path d="m19.929688 284.199219c5.425781-1.039063 8.976562-6.28125 7.9375-11.703125l-.050782-.265625c-1.039062-5.421875-6.269531-8.976563-11.707031-7.933594-5.421875 1.039063-8.976563 6.277344-7.933594 11.703125l.050781.265625c.917969 4.785156 5.109376 8.117187 9.808594 8.117187.625 0 1.257813-.058593 1.894532-.183593zm0 0"/><path d="m451.21875 210.539062c-.726562-73.300781-38.714844-137.835937-95.898438-175.539062-1.558593-1.027344-11.828124-7.289062-14.304687-8.65625-30.402344-16.78125-65.324219-26.34375-102.441406-26.34375-102.660157 0-188.5625 73.117188-208.371094 170.007812-.101563.398438-.179687.804688-.234375 1.214844-2.0625 10.402344-3.363281 21.070313-3.84375 31.953125-1.246094.09375-2.480469.265625-3.6875.519531-13.472656 2.800782-25.296875 15.058594-21.824219 33.070313 1.042969 5.421875 6.285157 8.96875 11.710938 7.925781 5.421875-1.042968 8.972656-6.289062 7.925781-11.710937-1.402344-7.292969 3.910156-9.21875 6.257812-9.707031 1.402344-.289063 8.503907-1.332032 10.324219 6.828124l16.550781 74.140626c-3.199218 8.507812-2.039062 18.6875 3.773438 27.414062 9.582031 14.382812 18.980469 28.046875 28.074219 41.257812 4.601562 6.691407 9.203125 13.378907 13.847656 20.183594 3.109375 4.5625 9.335937 5.734375 13.894531 2.621094 4.5625-3.109375 5.738282-9.332031 2.625-13.894531-4.65625-6.824219-9.273437-13.535157-13.890625-20.246094-9.050781-13.152344-18.40625-26.75-27.90625-41.011719-1.84375-2.765625-3.914062-8.351562.011719-11.746094 1.523438-1.316406 3.492188-1.960937 5.53125-1.816406 2.042969.148438 3.894531 1.066406 5.214844 2.589844l18.230468 21.0625c16.285157 18.8125 19.476563 20.515625 36.992188 25.175781 3.277344.871094 6.988281 1.859375 11.617188 3.214844 49.160156 14.40625 66.605468 62.492187 66.605468 99.292969v33.664062h-75.5l3.726563-32.523437c.464843-4.070313-1.597657-8.011719-5.203125-9.949219l-55.691406-29.914062c-29.398438-16.339844-32.898438-19.523438-40.703126-60.109376l-11.332031-58.808593c-1.042969-5.421875-6.277343-8.96875-11.710937-7.925781-5.421875 1.042968-8.972656 6.285156-7.925782 11.710937l11.328126 58.800781c8.640624 44.929688 14.796874 53.902344 50.691406 73.851563.039062.019531.082031.042969.125.066406l49.777344 26.734375-4.226563 36.925781c-.324219 2.832031.574219 5.664063 2.472656 7.792969 1.898438 2.125 4.613281 3.34375 7.460938 3.34375h96.710937c.6875 0 1.363282-.070312 2.011719-.203125.648437.132813 1.320313.203125 2.007813.203125h96.710937c2.851563 0 5.566406-1.21875 7.460937-3.34375 1.898438-2.128906 2.796876-4.960938 2.472657-7.792969l-4.226563-36.925781 49.777344-26.734375c.042969-.023437.085938-.046875.128906-.066406 35.890625-19.949219 42.050782-28.921875 50.6875-73.84375l5.457032-28.335938c1.046874-5.421875-2.503907-10.667969-7.925782-11.710937-5.433594-1.046875-10.667968 2.503906-11.710937 7.925781l-5.460938 28.339844c-7.800781 40.582031-11.300781 43.765625-40.699219 60.105469l-55.695312 29.910156c-3.605469 1.941406-5.667969 5.882812-5.199219 9.949218l3.722657 32.523438h-75.496094v-33.660156c0-36.800782 17.441406-84.886719 66.605468-99.292969 4.628907-1.355469 8.339844-2.34375 11.613282-3.21875 17.519531-4.660156 20.707031-6.363281 36.992187-25.171875l18.234375-21.066406c1.316406-1.519532 3.171875-2.441406 5.214844-2.589844 2.046875-.144531 4.007812.5 5.527344 1.816406 3.925781 3.398438 1.855468 8.980469.015625 11.746094-9.503907 14.269531-18.867188 27.875-27.921875 41.03125-4.609375 6.703125-9.226563 13.40625-13.875 20.226562-3.113282 4.5625-1.941406 10.785157 2.621094 13.898438s10.785156 1.9375 13.898437-2.625c4.636719-6.796875 9.234375-13.480469 13.832031-20.164062 9.097656-13.21875 18.5-26.886719 28.085938-41.277344 5.816406-8.722656 6.976562-18.90625 3.777344-27.414063l12.5-56.007812c.003906-.011719.007812-.027344.007812-.035157l4.039062-18.097656c1.820313-8.160156 8.921876-7.113281 10.324219-6.824218 2.351563.488281 7.664063 2.414062 6.257813 9.707031l-5.871094 30.472656c-1.046875 5.421875 2.503906 10.667969 7.925781 11.710937 5.425781 1.042969 10.667969-2.503906 11.710938-7.925781l5.875-30.472656c2.179687-11.324219-1.683594-20.371094-8.199219-26.226563zm-306.292969 125.964844c-13.796875-3.671875-13.796875-3.671875-27.015625-18.9375l-18.230468-21.0625c-4.816407-5.5625-11.527344-8.921875-18.898438-9.449218-3.597656-.257813-7.140625.171874-10.46875 1.238281l-13.960938-62.550781c-1.679687-7.53125-5.523437-13.09375-10.402343-16.824219.09375-4.894531.371093-9.746094.828125-14.546875 6.398437 4.621094 13.777344 8.015625 21.699218 9.851562 15.210938 3.523438 31.019532.976563 43.375-6.996094 7.59375-4.902343 26.050782-15.136718 33.347657-4.285156 5.363281 7.972656 3.292969 24.304688-6.683594 31.296875-12.691406 8.890625-19.25 21.714844-17.996094 35.183594 1.28125 13.734375 10.625 26.144531 24.390625 32.378906 18.601563 8.433594 41.246094 4.59375 62.125-10.53125 4.898438-3.550781 14.09375-8.347656 20.636719-.585937 5.691406 6.757812 6.105469 19.640625-3.148437 28.671875-4.546876 4.441406-8.609376 6.726562-12.910157 9.148437-11.425781 6.429688-19.9375 12.78125-24.808593 35.121094-8.636719-5.761719-18.523438-10.472656-29.78125-13.769531-4.867188-1.429688-8.875-2.496094-12.097657-3.351563zm234.324219-49.449218c-7.371094.53125-14.082031 3.886718-18.898438 9.449218l-18.230468 21.0625c-13.214844 15.265625-13.214844 15.265625-27.015625 18.9375-3.222657.859375-7.230469 1.925782-12.097657 3.351563-39.515624 11.578125-62.171874 40.527343-72.992187 71.449219-5.570313-15.914063-14.277344-31.300782-26.800781-44.070313 1.574218-3.515625 2.59375-6.796875 2.835937-7.980469 3.378907-16.566406 7.386719-18.824218 15.371094-23.320312 4.746094-2.667969 10.648437-5.992188 17.074219-12.261719 17.703125-17.277344 16.175781-41.976563 4.46875-55.871094-8.992188-10.671875-26.867188-17.792969-47.664063-2.726562-14.898437 10.792969-30.257812 13.894531-42.136719 8.511719-7.238281-3.277344-12.113281-9.417969-12.730468-16.019532-.585938-6.292968 2.71875-12.15625 9.558594-16.949218 17.953124-12.578126 23.6875-41.175782 11.800781-58.839844-4.464844-6.636719-22.046875-26.355469-60.789063-1.351563-7.832031 5.054688-18.039062 6.628907-28.011718 4.316407-9.09375-2.105469-17.082032-7.222657-22.425782-14.261719 19.292969-86.011719 96.257813-150.480469 188.007813-150.480469 31.691406 0 61.621093 7.695312 88.019531 21.3125-7.085938 6.714844-12.621094 14.410156-14.046875 23.914062-1.757813 11.734376 2.703125 24.046876 14.472656 39.921876 2.535157 3.417968 5.375 8.199218 4.527344 11.589843-1.578125 6.289063-15.144531 12.707031-27.113281 18.367188-12.617188 5.96875-25.660156 12.136719-34.632813 21.464843-11.523437 11.980469-13.75 27.066407-6.441406 43.636719 5.6875 12.882813 23.625 31.164063 79.925781 8.832031 14.910156-5.914062 23.136719 2.5 37.140625 21.738282 5.625 7.722656 11.019531 15.125 17.617188 20.222656l-8.324219 37.292969c-3.328125-1.066407-6.871094-1.496094-10.46875-1.238281zm24.429688-61.3125-.460938 2.066406c-2.207031-2.738282-4.429688-5.789063-6.625-8.804688-6.234375-8.566406-13.308594-18.277344-22.441406-24.636718-11.597656-8.070313-24.460938-9.390626-38.242188-3.921876-28.871094 11.453126-49.65625 12.097657-54.25 1.6875-7.535156-17.078124 1.210938-24.707031 31.324219-38.949218 16.757813-7.925782 34.085937-16.121094 37.960937-31.585938 2.207032-8.808594-.4375-18.351562-7.859374-28.363281-8.125-10.957031-11.644532-19.148437-10.757813-25.042969.707031-4.726562 4.511719-9.730468 12.433594-16.203125 49.582031 32.871094 83.144531 88.050781 86.246093 151.109375-11.773437.25-23.941406 7.460938-27.328124 22.644532zm0 0"/><path d="m440.207031 283.742188c-5.417969-1.054688-10.671875 2.476562-11.730469 7.898437l-.054687.261719c-1.058594 5.421875 2.476563 10.675781 7.898437 11.734375.648438.125 1.292969.1875 1.929688.1875 4.683594 0 8.871094-3.308594 9.804688-8.082031l.050781-.265626c1.058593-5.417968-2.476563-10.671874-7.898438-11.734374zm0 0"/></svg>