<?xml version="1.0" encoding="UTF-8" standalone="no"?>
<svg
   xmlns:dc="http://purl.org/dc/elements/1.1/"
   xmlns:cc="http://creativecommons.org/ns#"
   xmlns:rdf="http://www.w3.org/1999/02/22-rdf-syntax-ns#"
   xmlns:svg="http://www.w3.org/2000/svg"
   xmlns="http://www.w3.org/2000/svg"
   xmlns:sodipodi="http://sodipodi.sourceforge.net/DTD/sodipodi-0.dtd"
   xmlns:inkscape="http://www.inkscape.org/namespaces/inkscape"
   id="Outline"
   height="30"
   viewBox="0 0 30 30"
   width="30"
   version="1.1"
   sodipodi:docname="ico_03_pattern.svg"
   inkscape:version="0.92.4 (5da689c313, 2019-01-14)">
  <metadata
     id="metadata39">
    <rdf:RDF>
      <cc:Work
         rdf:about="">
        <dc:format>image/svg+xml</dc:format>
        <dc:type
           rdf:resource="http://purl.org/dc/dcmitype/StillImage" />
        <dc:title></dc:title>
      </cc:Work>
    </rdf:RDF>
  </metadata>
  <defs
     id="defs37" />
  <sodipodi:namedview
     pagecolor="#ffffff"
     bordercolor="#666666"
     borderopacity="1"
     objecttolerance="10"
     gridtolerance="10"
     guidetolerance="10"
     inkscape:pageopacity="0"
     inkscape:pageshadow="2"
     inkscape:window-width="1920"
     inkscape:window-height="1017"
     id="namedview35"
     showgrid="false"
     inkscape:zoom="10.429825"
     inkscape:cx="29.431822"
     inkscape:cy="17.117563"
     inkscape:window-x="-8"
     inkscape:window-y="-8"
     inkscape:window-maximized="1"
     inkscape:current-layer="Outline" />
  <path
     d="M 7.6848044,27.423044 H 22.72647 a 1.9813932,2.00225 0 0 0 1.979167,-2 v -16.8 a 0.39583334,0.4 0 0 0 -0.11593,-0.28285 l -4.75,-4.8 A 0.39583334,0.4 0 0 0 19.559804,3.423044 H 7.6848044 a 1.9813932,2.00225 0 0 0 -1.979167,2 v 20 a 1.9813932,2.00225 0 0 0 1.979167,2 z m 12.2708326,-22.63435 3.398575,3.43435 h -2.211075 a 1.1888359,1.20135 0 0 1 -1.1875,-1.2 z M 6.4973044,5.423044 a 1.1888854,1.2014 0 0 1 1.1875,-1.2 H 19.16397 v 2.8 a 1.9813932,2.00225 0 0 0 1.979167,2 h 2.770833 v 16.4 a 1.1888854,1.2014 0 0 1 -1.1875,1.2 H 7.6848044 a 1.1888854,1.2014 0 0 1 -1.1875,-1.2 z"
     id="path2"
     inkscape:connector-curvature="0"
     style="stroke-width:0.99999994" />
  <path
     d="m 12.03897,11.023044 a 0.39583334,0.4 0 0 0 0.395834,0.4 h 9.5 a 0.39583334,0.4 0 0 0 0,-0.8 h -9.5 a 0.39583334,0.4 0 0 0 -0.395834,0.4 z"
     id="path4"
     inkscape:connector-curvature="0"
     style="stroke-width:0.99999994" />
  <path
     d="m 8.4764704,13.823044 h 7.9166666 a 0.39583334,0.4 0 0 0 0,-0.8 H 8.4764704 a 0.39583334,0.4 0 0 0 0,0.8 z"
     id="path6"
     inkscape:connector-curvature="0"
     style="stroke-width:0.99999994" />
  <path
     d="m 21.934804,15.423044 h -7.125 a 0.39583334,0.4 0 0 0 0,0.8 h 7.125 a 0.39583334,0.4 0 0 0 0,-0.8 z"
     id="path8"
     inkscape:connector-curvature="0"
     style="stroke-width:0.99999994" />
  <path
     d="M 8.4764704,18.623044 H 17.97647 a 0.39583334,0.4 0 0 0 0,-0.8 H 8.4764704 a 0.39583334,0.4 0 0 0 0,0.8 z"
     id="path10"
     inkscape:connector-curvature="0"
     style="stroke-width:0.99999994" />
  <path
     d="M 8.4764704,11.423044 H 10.85147 a 0.39583334,0.4 0 0 0 0,-0.8 H 8.4764704 a 0.39583334,0.4 0 0 0 0,0.8 z"
     id="path12"
     inkscape:connector-curvature="0"
     style="stroke-width:0.99999994" />
  <path
     d="M 21.934804,13.023044 H 17.97647 a 0.39583334,0.4 0 0 0 0,0.8 h 3.958334 a 0.39583334,0.4 0 0 0 0,-0.8 z"
     id="path14"
     inkscape:connector-curvature="0"
     style="stroke-width:0.99999994" />
  <path
     d="M 8.4764704,16.223044 H 13.22647 a 0.39583334,0.4 0 0 0 0,-0.8 H 8.4764704 a 0.39583334,0.4 0 0 0 0,0.8 z"
     id="path16"
     inkscape:connector-curvature="0"
     style="stroke-width:0.99999994" />
  <path
     d="m 21.934804,17.823044 h -2.375 a 0.39583334,0.4 0 0 0 0,0.8 h 2.375 a 0.39583334,0.4 0 0 0 0,-0.8 z"
     id="path18"
     inkscape:connector-curvature="0"
     style="stroke-width:0.99999994" />
  <path
     d="m 18.768137,22.623044 h -3.958333 a 0.39583334,0.4 0 0 0 0,0.8 h 3.958333 a 0.39583334,0.4 0 0 0 0,-0.8 z"
     id="path20"
     inkscape:connector-curvature="0"
     style="stroke-width:0.99999994" />
  <path
     d="M 8.4764704,23.423044 H 13.22647 a 0.39583334,0.4 0 0 0 0,-0.8 H 8.4764704 a 0.39583334,0.4 0 0 0 0,0.8 z"
     id="path22"
     inkscape:connector-curvature="0"
     style="stroke-width:0.99999994" />
  <path
     d="m 8.4764704,21.023044 h 3.1666666 a 0.39583334,0.4 0 0 0 0,-0.8 H 8.4764704 a 0.39583334,0.4 0 0 0 0,0.8 z"
     id="path24"
     inkscape:connector-curvature="0"
     style="stroke-width:0.99999994" />
  <path
     d="M 8.4764704,9.023044 H 13.22647 a 0.39583334,0.4 0 0 0 0,-0.8 H 8.4764704 a 0.39583334,0.4 0 0 0 0,0.8 z"
     id="path26"
     inkscape:connector-curvature="0"
     style="stroke-width:0.99999994" />
  <path
     d="m 17.580637,20.623044 a 0.39583334,0.4 0 0 0 -0.395833,-0.4 H 13.22647 a 0.39583334,0.4 0 0 0 0,0.8 h 3.958334 a 0.39583334,0.4 0 0 0 0.395833,-0.4 z"
     id="path28"
     inkscape:connector-curvature="0"
     style="stroke-width:0.99999994" />
  <path
     d="m 21.934804,20.223044 h -3.166667 a 0.39583334,0.4 0 0 0 0,0.8 h 3.166667 a 0.39583334,0.4 0 0 0 0,-0.8 z"
     id="path30"
     inkscape:connector-curvature="0"
     style="stroke-width:0.99999994" />
  <path
     d="M 21.934804,22.623044 H 20.35147 a 0.39583334,0.4 0 0 0 0,0.8 h 1.583334 a 0.39583334,0.4 0 0 0 0,-0.8 z"
     id="path32"
     inkscape:connector-curvature="0"
     style="stroke-width:0.99999994" />
</svg>
