<?xml version="1.0" encoding="UTF-8" standalone="no"?>
<!-- Generator: Adobe Illustrator 18.0.0, SVG Export Plug-In . SVG Version: 6.00 Build 0)  -->

<svg
   xmlns:dc="http://purl.org/dc/elements/1.1/"
   xmlns:cc="http://creativecommons.org/ns#"
   xmlns:rdf="http://www.w3.org/1999/02/22-rdf-syntax-ns#"
   xmlns:svg="http://www.w3.org/2000/svg"
   xmlns="http://www.w3.org/2000/svg"
   xmlns:sodipodi="http://sodipodi.sourceforge.net/DTD/sodipodi-0.dtd"
   xmlns:inkscape="http://www.inkscape.org/namespaces/inkscape"
   version="1.1"
   id="Capa_1"
   x="0px"
   y="0px"
   viewBox="0 0 466.705 466.705"
   style="enable-background:new 0 0 466.705 466.705;"
   xml:space="preserve"
   sodipodi:docname="warning-symbol.svg"
   inkscape:version="0.92.4 (5da689c313, 2019-01-14)"><metadata
   id="metadata39"><rdf:RDF><cc:Work
       rdf:about=""><dc:format>image/svg+xml</dc:format><dc:type
         rdf:resource="http://purl.org/dc/dcmitype/StillImage" /></cc:Work></rdf:RDF></metadata><defs
   id="defs37" /><sodipodi:namedview
   pagecolor="#ffffff"
   bordercolor="#666666"
   borderopacity="1"
   objecttolerance="10"
   gridtolerance="10"
   guidetolerance="10"
   inkscape:pageopacity="0"
   inkscape:pageshadow="2"
   inkscape:window-width="1920"
   inkscape:window-height="1017"
   id="namedview35"
   showgrid="false"
   inkscape:zoom="0.50567276"
   inkscape:cx="-12.854163"
   inkscape:cy="233.35249"
   inkscape:window-x="-8"
   inkscape:window-y="-8"
   inkscape:window-maximized="1"
   inkscape:current-layer="Capa_1" />
<path
   d="M459.925,358.907L269.505,61.503c-7.893-12.323-21.518-19.776-36.145-19.776c-14.628,0-28.254,7.453-36.146,19.776  L6.78,358.907c-8.462,13.209-9.047,29.987-1.511,43.752c7.522,13.757,21.964,22.319,37.655,22.319h380.854  c15.691,0,30.134-8.555,37.656-22.319C468.972,388.894,468.387,372.116,459.925,358.907z M209.453,162.607  c0-13.078,10.605-23.675,23.675-23.675c13.072,0,23.676,10.597,23.676,23.675v101.584c0,13.078-10.604,23.675-23.676,23.675  c-13.07,0-23.675-10.597-23.675-23.675V162.607z M232.682,373.613c-16.338,0-29.594-13.249-29.594-29.594  c0-16.347,13.256-29.594,29.594-29.594c16.339,0,29.595,13.247,29.595,29.594C262.276,360.364,249.021,373.613,232.682,373.613z"
   id="path2"
   style="fill:#800000;fill-opacity:1" />
<g
   id="g4">
</g>
<g
   id="g6">
</g>
<g
   id="g8">
</g>
<g
   id="g10">
</g>
<g
   id="g12">
</g>
<g
   id="g14">
</g>
<g
   id="g16">
</g>
<g
   id="g18">
</g>
<g
   id="g20">
</g>
<g
   id="g22">
</g>
<g
   id="g24">
</g>
<g
   id="g26">
</g>
<g
   id="g28">
</g>
<g
   id="g30">
</g>
<g
   id="g32">
</g>
</svg>